<svg width="56" height="56" viewBox="0 0 56 56" fill="none" xmlns="http://www.w3.org/2000/svg">
<rect width="56" height="56" rx="28" fill="#3F3F46"/>
<path d="M18.783 18.1147C18.783 13.1661 22.8061 9.1429 27.7548 9.1429C32.7035 9.1429 36.7267 13.1661 36.7267 18.1147C36.7078 22.969 32.9113 26.8977 28.0759 27.0677H27.9437C27.8304 27.0488 27.6793 27.0488 27.5282 27.0677C22.5795 26.8977 18.783 22.969 18.783 18.1147Z" fill="white"/>
<path d="M18.1782 32.0898C23.4858 28.5766 32.0798 28.5766 37.3496 32.0898C39.7295 33.6764 41.0328 35.8296 41.0516 38.1529C41.0516 40.495 39.7295 42.6482 37.3496 44.2537C34.7052 46.0292 31.2298 46.9169 27.7544 46.9169C24.279 46.9169 20.8037 46.0292 18.1593 44.2537C15.7794 42.6671 14.4573 40.5139 14.4573 38.1906C14.4573 35.8674 15.7794 33.6953 18.1782 32.0898Z" fill="white"/>
</svg>
