<svg version="1.2" xmlns="http://www.w3.org/2000/svg" viewBox="0 0 1640 300" width="1640" height="300">
	<title>Новый проект</title>
	<style>
		.s0 { fill: #ffffff } 
	</style>
	<path id="NERO TEAM" class="s0" aria-label="NERO TEAM"  d="m0.9 249h43.9v-149.6h0.6l67.8 149.6h61v-199.4h-43.9v151.3h-0.6l-66.1-151.3h-62.7zm210 0h149.9v-39.1h-106v-43.8h94v-37.1h-94v-41.3h102.9v-38.1h-146.8zm179 0h43.9v-79.2h37.6c19.7 0 28.5 12.2 30.8 28.4l6.8 50.8h44.5l-6.9-50.8c-3.4-25.3-14.2-40.7-41.3-45.8v-0.6c20.8-4 43.3-16.8 43.3-48.7 0-36.5-28.5-53.6-70.1-53.6h-88.6zm86.7-113.3h-42.8v-47.9h42.8c18.5 0 26.7 11.4 26.7 24.2 0 13.1-8.2 23.7-26.7 23.7zm188.7 117.9c59.5 0 99.7-40.5 99.7-104.3 0-63.8-40.2-104.2-99.7-104.2-59.6 0-99.8 40.4-99.8 104.2 0 63.8 40.2 104.3 99.8 104.3zm0-39c-31.4 0-54.5-23.4-54.5-65.3 0-41.9 23.1-66.1 54.5-66.1 31.3 0 54.4 24.2 54.4 66.1 0 41.9-23.1 65.3-54.4 65.3zm234.5 34.4h43.9v-161.2h64.1v-38.2h-172.1v38.2h64.1zm130.1 0h149.9v-39h-106v-43.9h94v-37h-94v-41.4h102.9v-38.1h-146.8zm163.4 0h47l15.7-44.2h80.3l15.7 44.2h47l-73-199.5h-59.8zm75.8-80.9l26.8-76h0.5l26.8 76zm149.9 80.9h43.9v-155.5h0.5l37.7 155.5h55.5l37.6-155.5h0.6v155.5h43.9v-199.4h-72.1l-37.3 165h-0.6l-37.3-165h-72.4z"/>
</svg>