<svg version="1.2" xmlns="http://www.w3.org/2000/svg" viewBox="0 0 1080 1080" width="1080" height="1080">
	<style>
		.s0 { fill: #f55c00 } 
	</style>
	<g id="#000000fe">
		<path class="s0" d="m927.87 0c6.73 7.68 11.05 17.02 16.4 25.64 4.37 6.77 7.15 14.39 11.21 21.33 3.59 7.15 6.93 14.44 11.14 21.27 5.95 11.98 9.12 25.08 13.72 37.59 4.92 13.65 6.65 28.1 9.13 42.31 1.89 9.59 1.4 19.41 1.5 29.12 0.34 17.07-2.94 34.04-8.27 50.2-1.73 6.64-5.9 12.48-6.51 19.43 11.66-12.49 21.74-26.46 30.62-41.06 2.62-4.1 5.5-8.1 7.38-12.64 1.59-3.87 3.21-7.75 5.33-11.38 3.99-6.92 6.44-14.58 9.89-21.76 2.99-7.33 6.62-14.42 8.83-22.05q1.26-0.14 2.55-0.29c-0.02 6.63 3.71 12.51 3.72 19.13 0.07 6.15 1.27 12.19 1.71 18.31 0.31 16.08 0.68 32.51-4 48.05-1.5 10.35-3.68 20.59-5.87 30.8-2.51 7.01-4.41 14.19-6.11 21.42-4.13 10.86-8.82 21.53-13.57 32.14-7.26 15.87-17.17 30.28-26.12 45.21-3.8 6.34-9.18 11.58-12.67 18.11 5.86-2.73 10.95-6.78 16.28-10.4 7.13-4.99 13.97-10.44 19.88-16.84 5.27-5.64 11.46-10.3 17.08-15.57 4.54-4.1 7.28-10.53 13.64-12.21 0.07 5 0.22 10.21-1.75 14.93-1.67 4.1-3.14 8.31-3.57 12.74-0.85 8.78-4.83 16.78-7.48 25.08-4.6 12.03-9.78 23.85-15.9 35.19-3.34 6.68-7.84 12.67-11.5 19.16-6.04 10.61-14.42 19.59-22.15 28.96-6.36 7.52-13.63 14.16-21.09 20.56-6.11 6.34-13.81 10.95-19.45 17.77 7.56-1.4 14.56-4.71 21.91-6.85 13.25-3.83 25.56-10.18 37.65-16.73 12.21-5.76 23.8-12.71 35.37-19.66 6.76-3.78 13.47-7.64 20.2-11.47-4.76 9.79-10.38 19.21-17.12 27.78-7.73 11.2-15.58 22.36-24.71 32.49-4.41 5.72-8.64 11.63-14.1 16.44-7.93 8.43-16.88 15.77-25.75 23.16-6.44 5.31-13.95 9.08-20.55 14.18-12.59 8.65-26.06 15.96-39.6 22.97 17.12 2.1 34.16-2.14 50.99-4.83 7.6-0.99 15.02-3.27 22.76-3.31-7.43 10.97-15.76 21.64-26.7 29.32-22.4 18.54-49.15 30.97-76.63 39.97-9.62 3.63-19.57 6.38-29.7 8.12-5.67 0.97-11.34 2.17-16.58 4.58 6.43 2.62 12.68 6 19.6 7.19 4.78 0.78 9.53 1.79 14.07 3.49 7.86 2.91 16.35 3.15 24.54 4.58 7.16 1.29 14.54 0.07 21.68 1.67-10.11 7.77-21.83 13.15-33.91 17.04-14.77 6.37-30.63 9.75-46.53 11.76-8.84 1.61-17.85 1.05-26.78 1.15-7.9 0.2-15.62-1.81-23.5-1.9-6.75-0.03-12.97-2.97-19.53-4.05 7.97 9.22 19.26 14.87 30.76 18.41 13.28 4.84 27.63 4.34 41.56 4.47q-0.16 1.41-0.28 2.83c-8.18 2.09-15.34 6.68-23.21 9.56-23.76 7.22-49.48 10.28-73.82 4.03-9.56-2.65-19.38-4.72-28.38-9.02-8.18-3.04-15.52-7.97-23.85-10.57 1.44 5.81 5.08 10.64 8.67 15.32 5.49 7.02 10.49 14.55 17.23 20.5 4.43 4.46 10.6 6.91 14.32 12.12-6.95 0.7-14.07 0.59-20.74-1.66-8.88-2.91-18.18-4.82-26.52-9.17-6.56-3.35-13.6-5.76-19.76-9.85-5.39-3.64-11.52-5.97-17.07-9.35-6.43-3.63-12.44-7.98-18.99-11.41-0.38 13.36-0.04 26.72-0.22 40.08 0.13 3.3-0.44 7.17 2.06 9.79 3.75 4.11 9.18 5.95 13.95 8.56 10.98 5.99 22.18 12 31.2 20.8 6.01 5.93 12.48 11.63 16.72 19.04 3.18 5.54 6.75 10.86 9.98 16.37 3.4 5.72 4.48 12.37 6.82 18.51 4.6 14.91 4.95 30.86 3.17 46.27-2.62 12.16-6.23 24.45-12.96 35.02q-0.9-5.07-1.17-10.21c-0.26-7.04-1.77-13.96-3.3-20.81-2.15-11.45-9.63-21.37-18.68-28.38 1.49 7.54 4.02 14.93 4.12 22.69 0.21 9.87 0.61 19.78-0.52 29.61-2.01 13.15-5.81 26.27-12.97 37.6-3.27 5.2-5.53 11.13-9.99 15.5-7.16 6.84-13.82 14.45-22.65 19.25-10.75 5.92-22.76 12.05-35.44 9.66 5.84-4.21 12.52-7.11 18.08-11.71 3.9-3.24 7.53-6.8 10.77-10.68 5.34-6.38 7.63-14.57 9.88-22.41 2.28-13.03-0.4-26.62-6.29-38.37-2.07-4.08-3.99-8.22-5.87-12.38-3.42-7.51-8.07-14.38-12.93-21.01-0.95 6.47-0.71 13.06-1.84 19.52-1.44 9.33-3.16 18.71-6.46 27.59-5.02 13.26-11.4 25.93-17.56 38.68-5.24 10.46-12.98 19.41-17.88 30.04-4.69 8.98-8.74 18.25-13.15 27.35-4.95 11.39-8.02 23.47-11.8 35.27-1.58 4.95-2.35 10.1-3.26 15.21-4.8-12.88-7.37-26.45-11.88-39.42-2.8-8.75-6.94-16.93-11.27-24.96-5.05-12.72-11.22-25.07-18.92-36.39-3.01-4.81-4.79-10.24-7.09-15.39-5.44-12.12-10.8-24.28-15.53-36.69-2.48-6.69-5.95-13.21-6.45-20.45-0.48-6.44-0.61-12.89-0.74-19.33q-1.38 0.2-2.72 0.44c-3.06 7.83-8.36 14.49-11.95 22.07-6.22 10.47-11.35 22.08-11.62 34.46-0.56 9.23 0.33 18.81 4.73 27.11 4.07 7.76 10.33 14.12 17.02 19.67 5.49 4.56 12.08 7.51 17.72 11.87-11.33 1.65-22.03-3.22-32.13-7.63-11.68-5.63-20.79-15.21-29.14-24.87-9.77-13.72-15.58-29.83-19.22-46.16-1.45-7.51-1.09-15.22-1.13-22.83 0.13-7.38-0.21-14.84 1.31-22.1 0.66-3.08 1.26-6.16 1.71-9.26-6.86 4.71-12.53 11.44-15.11 19.42-1.62 5.41-2.91 10.9-4.35 16.37-1.81 6.81-1.68 13.91-1.8 20.91q-1.42-0.21-2.82-0.39c-3.06-7.59-6.99-14.93-8.49-23.06-1.36-8.4-3.22-16.8-2.98-25.37 0.23-8.94-0.6-18.16 2.23-26.8 1.9-5.9 2.96-12.08 5.66-17.69 4.07-8.85 9.4-17.05 14.72-25.17 7.52-9.39 16.16-17.96 25.93-25 8.81-5.79 18.44-10.19 27.68-15.23 4.17-2.4 8.92-5.96 8.48-11.38 0.01-13.78 0.08-27.56-0.06-41.34-8.67 2.88-15.94 8.56-24.04 12.61-3.57 1.79-7.1 3.68-10.34 6.04-5.93 4.35-13.01 6.65-19.44 10.14-5.56 3-11.89 3.88-17.81 5.91-10.62 3.74-21.94 5.84-33.22 5.03 8.73-7.45 19.06-13.53 25.37-23.37 6.2-8.54 13.51-16.47 17.87-26.18-7.16 2.54-13.14 7.39-20.04 10.45-24.43 9.37-50.67 16.68-77.06 13.18-14.65-2.02-29.11-5.78-42.81-11.4-3.51-1.38-6.81-3.26-9.8-5.55 7.75-1.07 15.71-0.04 23.34-2.05 16.7-3.67 33.67-10.2 45.89-22.57-7.84 1.89-15.67 4.08-23.82 4.05-14.15 1.95-28.59 2.41-42.76 0.31-5.56-0.56-11.2-0.69-16.63-2.13-8.85-2.23-17.91-3.87-26.3-7.54-4.64-2-9.59-3.18-14.2-5.24-8.46-4.11-17.35-7.62-24.6-13.76 7.15-1.57 14.52-0.36 21.7-1.68 6.58-1.2 13.48-0.85 19.75-3.48 5.06-2.14 10.38-3.53 15.81-4.36 7.55-1.08 14.33-4.71 21.25-7.68-18.3-3.32-36.46-7.46-54.33-12.63-7.36-2.28-13.88-6.55-20.95-9.56-10.25-4.44-19.36-11.01-28.62-17.16-8.93-5.92-16.87-13.11-25.27-19.72-5.15-4.01-8.87-9.44-13.41-14.07-2.53-2.61-5.01-5.28-7.37-8.04 3.33 0.16 6.65 0.43 9.93 1.05 7.66 1.38 15.54 0.81 23.14 2.66 15.04 3.23 30.36 4.57 45.59 6.48q-0.24-1.74-0.45-3.44c-21.96-8.1-41.35-21.59-60.77-34.36-12.35-9.62-23.85-20.27-34.45-31.78-3.45-4.06-6.24-8.62-9.94-12.48-4.99-5.25-9.32-11.08-13.85-16.73-4.28-5.37-7.63-11.4-11.87-16.79-6.58-7.8-11.21-16.97-15.73-26.04 20.57 11.27 40.55 23.58 61.18 34.73 6.89 3.65 14.54 5.58 21.37 9.34 4.99 2.76 10.38 4.66 15.74 6.52 6.24 2.12 12.33 4.76 18.8 6.15-7.71-8.76-16.6-16.42-25.61-23.81-6.87-5.38-11.61-12.83-17.76-18.93-6.75-8-13.71-15.95-18.8-25.17-6-9.75-12.56-19.25-17.06-29.84-5.39-11.76-10.87-23.51-15.53-35.6-4.21-10.97-4.46-22.94-8.58-33.92-1.46-4.02-0.99-8.36-0.67-12.52 3.7 3.4 6.71 7.44 10.02 11.2 8.39 8.95 17.41 17.29 25.96 26.07 5.6 5.4 11.93 9.95 18.21 14.5 3.12 2.3 6.55 4.16 10.21 5.44-2.4-6.41-7.53-11.17-10.92-17.01-8.92-15.05-18.62-29.72-25.68-45.78-3.84-9.16-8.55-17.99-11.28-27.59-5.01-13.17-9-26.83-10.63-40.87-1.97-10.26-2.63-20.72-4.56-30.99-2.68-8.47-1.25-17.44-1.66-26.16-0.39-5.93 2.57-11.37 2.57-17.26 0.1-8.4 2.04-16.6 2.78-24.95 8.39 15.25 13.56 32.02 22.12 47.18 3.36 5.91 5.99 12.22 9.38 18.11 6.96 11.49 14.5 22.67 23.06 33.04 3.15 3.99 6.27 8.05 10.14 11.4-2.05-8.39-6.29-16.02-8.54-24.33-2.55-9.53-5.84-18.99-5.98-28.97-1.53-12.22-2.31-24.66-0.43-36.9 0.78-5.91 0.54-11.96 2.12-17.74 1.18-4.51 2.32-9.03 2.87-13.66 1.05-8.41 4.47-16.23 6.94-24.27 2.24-7.22 4.74-14.37 7.32-21.48 1.86-5.28 5.33-9.76 7.62-14.83 2.17-4.74 3.81-9.72 6.19-14.36 8.2-15 15.75-30.45 25.9-44.26 1.26-1.51 2.81-2.73 4.33-3.97-2.24 10.95-7.4 21.18-8.45 32.4-0.55 6.91-2.74 13.55-3.61 20.42-0.91 13.58-1 27.24-0.02 40.82 0.76 6.51 2.84 12.8 3.44 19.34 0.4 4.88 1.64 9.65 3.4 14.21 2.67 6.95 4.2 14.33 7.55 21.02 5.69 11.7 11.09 23.63 18.41 34.44 5.08 9.21 10.8 18.16 18.14 25.74 4.42 4.46 7.72 9.93 12.6 13.93-2.39-10.05-7.27-19.39-8.48-29.73-2.06-8.47-4.01-16.98-6.13-25.44-0.95-11.48-1.34-23.11-0.3-34.61 2.66 1.68 4.77 4.03 6.13 6.85 9.25 16.79 20.21 32.55 31.52 47.98 4.71 7.1 10.24 13.57 15.55 20.2 4.66 5.84 10.29 10.8 14.94 16.64 5.63 7.29 13.42 12.42 19.6 19.19 7.79 6.8 15.37 13.85 23.08 20.76 12.92 12.77 27.78 23.37 42.4 34.08 18.18 11.25 34.65 26.48 43.54 46.25 2.93 7.03 6.02 14.1 7.53 21.61 1.71 11.15 3.83 22.64 1.14 33.81-1.64 6.83-2.29 13.97-5.19 20.42-3.5 7.26-6.03 15.07-5.99 23.2-0.02 10.45-0.94 21.28 2.63 31.3 3.05 9.29 6.62 18.4 10.48 27.39 2.9 6.29 7.01 11.93 11.08 17.51 6.65 8.92 15.52 15.76 23.71 23.15 7.34 6.34 15.61 11.44 23.55 16.94-2.62 2.15-5.2 4.94-8.79 5.22-7.13 0.71-13.57-2.96-20.05-5.29-12.58-4.18-22.54-13.52-31.21-23.2-7.44-7.85-13.07-17.16-18.47-26.47-4.47-7.54-5.79-16.36-9.47-24.26-3.3-6.83-3.66-14.5-5.66-21.72-2.01-7.02-1.61-14.39-2.03-21.61-0.66-8.99 3.73-17.16 6.37-25.47 5.8-12.07 4.41-25.81 4.35-38.77 0.01-10.55-4.52-20.35-10-29.1-3.63-6.63-7.73-13.24-13.96-17.76-22.94-17.75-46.84-34.43-67.85-54.51-4.59-4.26-9.77-7.86-14.04-12.46-4.45-4.73-9.09-9.28-13.74-13.84-8.18-8.18-14.68-18.05-23.95-25.12 1.81 9.64 5.29 19 10.66 27.24 6.23 9.57 10.89 20.07 17.45 29.44 4.43 6.71 8.55 13.67 13.84 19.78 9.23 11.96 18.36 24.06 26.19 37.01 5.09 9.41 8.97 19.43 13.72 29.02 3.68 8.31 5.22 17.36 8 26 1.53 5.83 1.98 11.9 3.6 17.72 1.95 6.71 1.4 13.72 1.7 20.61 0.56 14.13 0.23 28.44-3 42.27-2.8-12.36-5.24-24.82-8.51-37.06-3.5-10.13-4.67-20.89-8.54-30.91-2.64-9.98-8.04-18.87-11.61-28.5-4.7-9.33-9.74-18.49-14.98-27.53-2.08-3.69-3.84-7.58-6.44-10.95-6.01-7.37-11.07-15.43-16.78-23.02-13.25-18.5-29.12-34.88-43.27-52.65-7.35-9.54-15.59-18.36-23.86-27.11-9.3-11.43-18.56-22.91-27.62-34.55-5.87-7.39-9.89-15.99-14.66-24.09-4.65-9.42-8.9-19.03-13.01-28.7q-2.09-4.88-3.34-10.04c-1.47-6.17-3.75-12.13-4.8-18.4q-1.47 0.13-2.93 0.28c-1.5 7.78-3.75 15.43-4.66 23.31-0.56 5.87-3.23 11.36-2.96 17.33 0.19 6.94-0.73 14.09 1.48 20.81 1.93 6.19 1.15 12.88 3.44 18.99 3.13 8.88 4.43 18.4 8.95 26.76 3.16 5.86 5.85 11.96 8.64 18.01 3.19 6.47 7.45 12.33 10.9 18.66 4 7.28 9.33 13.7 14.27 20.35 2.75 3.67 5.63 7.25 8.78 10.6 6.5 6.79 12.08 14.43 19.05 20.76 7.58 6.7 15.11 13.47 22.75 20.09 8.28 8.07 16.61 16.14 25.8 23.17 3.38 2.57 6.51 5.49 9.23 8.78-2.12-0.36-4.25-0.78-6.26-1.53-11.63-4.66-22.74-10.49-33.96-16.03-6.28-3.09-11.66-7.67-18-10.65-24.69-13.84-47.49-30.86-68.97-49.25-8.59-5.89-15.8-13.44-23.1-20.79-4.07-4.45-7.79-9.2-12.15-13.37-5-4.72-8.61-10.72-13.9-15.15 0.48 4.77 2.18 9.28 3.87 13.73 2.1 5.45 2.43 11.46 5.02 16.74 3.26 6.6 5.83 13.52 9.23 20.06 3.27 6.39 5.72 13.19 9.41 19.37 3.88 6.57 7.78 13.16 12.07 19.47 2.7 4.04 6.13 7.52 8.87 11.53 6.15 9.61 13.57 18.32 21.22 26.75 8.94 10.71 18.86 20.6 29.61 29.48 6.87 6.49 14.01 12.69 21.74 18.13 4.85 3.24 8.66 7.74 13.5 10.97 5.87 3.96 11.48 8.29 17.33 12.27 5.32 3.69 11.19 6.57 16.17 10.74-7.49 0.48-14.71-1.84-21.73-4.18-9.1-3.19-18.59-5.08-27.67-8.32-7.78-2.9-15.75-5.34-23.26-8.94-5.8-2.72-12.05-4.59-17.29-8.37-5.56-3.93-11.91-6.47-17.89-9.63-6.04-3.11-11.82-6.72-17.96-9.66-6.46-3.12-12.22-7.44-18.39-11.07-4.02-2.37-7.76-5.17-11.55-7.88 1.31 3.55 3.14 6.89 5.36 9.95 6.08 8.51 11.84 17.26 18.47 25.36 3.32 4.47 6.48 9.09 10.73 12.74 5.85 5.11 9.98 11.88 16.06 16.74 6.5 5.32 12 11.72 18.48 17.07 11.73 9.52 24 18.39 36.78 26.47 5.1 3.05 10.48 5.64 15.39 9.02 12.27 8.18 25.89 13.93 39.24 20.03 5.16 2.27 10.92 3.25 15.5 6.73-8.99 0.8-18.03 0.29-27.04 0.47-5.36 0.03-10.76 0.02-16.06-0.85-8.83-1.38-17.85-0.51-26.65-2.22-10.94-1.28-21.6-4.13-32.35-6.45-9.6-2.95-19.64-4.31-29.03-7.91q-4.55-1.74-9.34-2.72c3.53 3.74 7.76 6.68 11.86 9.73 13.94 10.69 29.01 19.9 44.75 27.69 9.54 5.39 19.7 9.65 30.24 12.73 9.61 2.76 18.68 7.37 28.62 8.95 9.52 1.72 18.77 4.83 28.45 5.63 5.17 0.35 10.3 1.1 15.43 1.8 4.62 0.68 9.85-0.65 13.81 2.48-4.04 1.46-8.16 2.7-12.14 4.32-10.84 4.58-22.71 5.46-33.97 8.53-7.74 2.16-15.75 2.7-23.72 3.4-17.32 2.93-34.95 1.11-52.42 1.99 10.64 8.32 23.7 12.56 36.46 16.41 13.85 5.48 28.83 6.64 43.45 8.5 7.08 1.02 14.25 0.61 21.37 0.67 12.61-0.29 25.31 0.75 37.85-1.03 7.55-0.53 15.16-0.45 22.73-0.07-4.35 3.56-9.33 6.2-14.15 9.05-12.01 7.39-24.21 14.47-36.12 22-4.85 3-9.24 6.71-14.4 9.18-4.76 2.3-9.35 5.01-13.27 8.6 14.29 2.3 28.63-0.73 42.86-1.96 7.38-0.91 14.57-2.85 21.61-5.16 6.9-2.33 14.54-2.15 21.01-5.78 5.53-3.06 11.81-4.02 17.89-5.39 6.95-1.38 13.54-4.16 20.56-5.2-5.66 10.6-13.26 19.95-20.94 29.12-10.81 11.75-23.11 22-34.29 33.38 6.35-0.59 12.71-1.68 18.65-4.03 10.02-3.94 20.64-6.43 30.18-11.55 5.87-3.24 12.21-5.44 18.11-8.59 8.75-4.72 17.09-10.17 26.05-14.51 0.29 9.96 0.8 20.01-1.07 29.85-0.54 6.92-3.67 13.23-4.98 19.98 5.34-2.18 9.99-5.64 14.96-8.52 6.9-3.74 13.03-8.69 19.24-13.44 2.14-1.85 4.98-3.99 4.46-7.2-0.83-8.88-5.25-16.85-7.57-25.35-2.61-9.92-7.92-19.58-16.47-25.55-4.57-3.32-9.1-6.77-14.16-9.33-17.38-8.91-34.21-18.97-49.74-30.84-6.62-5.65-14.29-10.06-20.14-16.58-9.28-10.47-18.62-20.92-26.91-32.22-11.07-15.54-19.9-32.59-27.01-50.27-2.92-8.37-5.82-16.74-8.44-25.21-2.24-9.41-4.59-18.8-6.95-28.17-2.65-7.11-1.42-14.81-2.52-22.17-0.72-4.58-0.9-9.21-0.97-13.83-0.16-8.47-0.98-16.96-0.04-25.41 4.79 6.32 5.92 14.34 8.33 21.71 2.27 7.12 2.6 14.68 5.01 21.77 1.55 4.78 2.65 9.68 4.07 14.5 2.39 8.17 6.3 15.8 8.7 23.97 2.02 6.98 5.77 13.23 8.72 19.83 8.23 17.77 17.8 35.05 30.18 50.3 9.74 12.57 20.85 24.09 33 34.35 3.85 3.28 6.86 7.41 10.83 10.55 5.19 4.11 10.77 7.73 16.46 11.15 13.12 8.12 28.51 11.98 41.1 21.06 8.73 6.11 15.81 14.31 21.65 23.17 4.62 7.3 9.2 14.82 11.33 23.28 4.7 14.51 8.73 29.35 10.18 44.58 1.27 8.49 3.42 16.85 4.08 25.43q1.49-0.22 2.99-0.4c3.42-7.13 6.5-14.42 9.84-21.59 4-10.86 5.44-22.54 5.42-34.06 0.26-8.36-0.43-16.73 0.2-25.07 1.48 2.06 2.78 4.27 3.5 6.72 2.04 6.85 6.06 13.08 6.78 20.32 1.46 15.47 1.04 31.27-2.81 46.37-1.6 3.68-3.92 7.02-5.14 10.88-4.87 14.84-14.51 27.71-25.88 38.24-9.23 9.24-21.63 13.99-32.85 20.22-6.85 3.75-12.62 9.06-18.82 13.74-5.89 4.33-9.72 10.72-14.64 16.01-6.6 8.21-12.67 17.21-15.53 27.48 6.84-3.95 12.84-9.17 19.66-13.13 4.78-3.22 10.23-5.16 15.52-7.33 9.48-4.59 19.53-7.81 29.06-12.26-4.08 8.2-10.11 15.21-14.25 23.39-4.1 8.07-8.63 16.01-11.16 24.77-2.02 6.88-5.24 13.51-5.51 20.8-0.24 5.55-2.93 10.68-2.85 16.27-0.07 5.75 0.16 11.48 0.21 17.23q1.93-0.18 3.89-0.32c2.65-8.44 6.73-16.31 11-24.04 8.06-16.22 19.03-30.88 31.4-44.05 10.08-11.98 21.16-23.21 33.66-32.68 5.07-3.76 8.78-8.94 13.4-13.17 0.17 10.23-6.85 18.31-10.03 27.56-2.15 6.3-5.98 11.98-7.23 18.6-1.63 8.1-4.43 16.06-4.45 24.42-0.15 8.51-0.14 17.05 0.41 25.55 0.31 6.94 2.95 13.44 5.13 19.95 1.85 5.63 5.76 10.24 7.96 15.72 3.98 9.59 9.27 18.56 14.04 27.78 6 12.19 12.09 24.39 19.54 35.78 8.8-15.39 17.12-31.06 25.05-46.91 2.86-5.56 6.37-10.75 9.01-16.42 2.7-6.05 7.21-11.29 8.44-17.95 1.15-6.39 4.04-12.41 4.35-18.94 0.45-10.48 1.13-21.08-0.77-31.46-1.47-12.34-4.44-24.7-10.38-35.68-3.26-9-8.09-17.27-11.51-26.19 4.98 2.58 9.09 6.46 13.73 9.55 8.8 5.62 15.6 13.7 22.93 21.01 9.15 10.01 17.3 20.86 25.29 31.81 8.09 11.02 14.26 23.28 21.11 35.07 3.13 5.3 5.73 10.91 7.84 16.71q2.05 0.13 4.12 0.3c0.04-13.31 0.46-26.79-2.84-39.79-2.6-8.12-6.18-15.86-9.06-23.87-4.51-14.33-13.41-26.66-21.22-39.31 7.96 1.3 15.3 4.84 22.58 8.18 7.18 3.68 14.77 6.58 21.67 10.81 6.34 3.66 11.66 8.89 18.21 12.21-2.03-7.44-5.18-14.6-9.3-21.1-4.13-6.59-10.15-11.61-15.14-17.49-2.53-2.91-5.37-5.57-8.56-7.74-7.32-4.99-14.09-10.86-22.18-14.61-8.73-4.09-17.46-8.58-24.46-15.34-6.07-5.85-12.27-11.71-16.94-18.78-4.46-6.59-8.04-13.79-10.56-21.34-2.09-6.52-5.65-12.54-6.99-19.3-1.36-7.19-1.02-14.55-1.09-21.82-0.16-8.79 0.88-17.66 3.49-26.06 2.07-4.19 4.35-8.28 5.86-12.72 2.22 11.25-0.87 22.91 2.06 34.08 2.27 8.34 2.75 17.18 6.48 25.11 3.69 8.06 6.35 16.71 11.6 23.94 1.41-10.38 0.09-21 2.55-31.25 2.66-16.3 7.95-31.99 12.53-47.82 2.59-8.79 7.11-16.83 11.99-24.52 6.16-9.47 15.05-17.43 25.67-21.52 7.67-3.04 14.7-7.42 22.02-11.19 13.06-6.85 25.51-15.02 36.29-25.14 6.82-5.71 12.81-12.33 19.64-18.04 7.6-6.41 13.42-14.54 19.6-22.24 12.08-15.3 21.63-32.48 29.21-50.39 2.59-7.38 6.99-13.93 9.37-21.38 3.88-8.97 6.17-18.47 9.8-27.53 1.76-4.95 1.89-10.28 3.5-15.27 1.84-5.63 3.41-11.36 5.42-16.92 2.25-5.79 2.78-12.12 5.64-17.69 1.55 13.02 0.77 26.25-0.87 39.23-0.43 6.63-0.23 13.33-1.49 19.89-1.03 5.19-1 10.7-3.5 15.5-3.09 6.16-3.71 13.12-5.83 19.62-2.54 8.1-5.54 16.04-7.82 24.22-3.93 11.18-10.45 21.2-16.2 31.49-7.95 11.56-15.68 23.45-25.75 33.33-6.35 6.23-11.57 13.57-18.45 19.28-17.18 13.43-34.73 26.57-54.15 36.63-10.11 5-19.61 11.36-27.66 19.29-4.47 4.42-6.96 10.27-9.8 15.76-4.11 7.52-6.55 15.81-8.39 24.15-0.73 4.57-1.46 10.37 2.64 13.65 6.16 5.21 12.78 9.94 19.87 13.83 5.7 3.19 10.99 7.18 17.22 9.36-3.44-8.96-7.77-17.89-8.25-27.64-0.44-7.88-0.41-15.78-0.06-23.66 9.45 4.33 18.04 10.22 27.34 14.81 4.96 2.46 9.88 4.97 14.7 7.71 6.32 3.62 13.31 5.81 20.05 8.52 8.33 3.09 16.86 6.29 25.88 6.27-3.22-6.8-9.47-11.32-13.79-17.31-4.68-6.5-11.47-11.04-16.24-17.46-3.89-5.1-8.94-9.23-12.52-14.57-3.01-4.67-7.35-8.48-9.32-13.78 6.68 0.74 12.72 3.87 19.04 5.94 5.51 1.97 11.35 3 16.64 5.58 5.01 2.46 10.53 3.47 15.91 4.78 10.89 2.57 21.53 6.47 32.76 7.27 6.2 0.37 12.4 0.86 18.55 1.78 8.25 0.59 16.56 0.53 24.82-0.02-7.72-5.18-16.95-7.58-24.47-13.1-6.57-4.83-13.9-8.46-20.66-12.98-11.71-7.81-23.62-15.55-34-25.1 7.22 0.82 14.18 3.27 21.48 3.53 8.86 0.34 17.73 0.82 26.61 0.74 13.3-0.08 26.72 0.36 39.87-2.01 7.57-0.88 14.84-3.28 22.34-4.59 6.91-1.25 13.26-4.37 19.99-6.28 9.64-2.73 18.69-7.14 27.75-11.36-8.43-1.88-17.1-0.2-25.57-1.52-7.29-1.16-14.73-0.73-22.01-2.06-6.94-1.28-14.15-0.72-20.99-2.69-14.83-3.85-30.19-5.93-44.51-11.54-2.26-0.7-3.96-2.33-5.29-4.21 12.13-0.4 24.18-1.99 36.19-3.7 9.99-1.25 19.37-5.2 29.28-6.83 9.37-1.64 18.04-5.68 27.01-8.72 5.23-1.8 10.1-4.47 15.03-6.97 5.72-2.94 11.83-5.08 17.43-8.27q15.75-8.94 30.6-19.33c5.87-4.25 12.36-7.79 17.19-13.3-12.63 3.58-25.4 6.59-38.15 9.68-8.47 2.68-17.26 4.09-26.06 5.08-10.53 1.88-21.1 3.72-31.83 3.73-14.63 1.82-29.44 1.88-44.14 1.13 9.96-4.82 20.7-7.84 30.46-13.13 9.93-5.38 20.48-9.67 29.72-16.27 19.97-11.67 38.87-25.31 55.69-41.24 3.95-3.5 8.16-6.74 11.85-10.54 4.58-4.61 8.23-10.09 13.19-14.34 2.71-2.36 5.35-4.89 7.36-7.9 5.18-7.98 11.67-14.99 16.89-22.96 3.72-5.81 8.34-11.16 10.68-17.75-7.28 5.77-15.21 10.58-22.94 15.69-6.44 4.45-13.97 6.89-20.57 11.07-6.19 3.92-13.33 6.08-19.38 10.25-3.54 2.49-7.44 4.38-11.52 5.82-6.93 2.43-13.44 5.91-20.39 8.25-7.26 2.41-14.12 5.95-21.6 7.64-7.17 1.67-14.18 3.93-21.35 5.53-5.91 1.28-11.57 4.05-17.75 3.61 2.72-2.14 5.62-4.03 8.59-5.8 16.25-9.87 31.06-21.83 45.89-33.66 6.43-5.15 12.19-11.07 18.61-16.23 7.97-7.27 15.64-14.92 22.52-23.25 6.94-7.72 13.69-15.63 19.75-24.07 4.02-6.43 9.3-11.92 13.3-18.36 8.27-12.99 16.18-26.35 21.88-40.7 2.66-6.9 7.55-12.85 9-20.23 1.81-9.2 7.38-17.39 7.85-26.87-5.07 6.15-10.14 12.31-15.89 17.86-6.39 7.2-12.75 14.41-19.83 20.95-6.63 7.09-14.8 12.38-22.18 18.62-21.3 17.38-44.16 32.91-68.47 45.79-10.53 6.86-22.12 11.73-33.59 16.71-6.02 2.62-11.57 6.22-17.73 8.52 2.86-5.34 8.64-7.71 13.02-11.53 6.67-5.89 13.9-11.2 19.65-18.06 12.9-12.04 27.15-22.78 38.41-36.49 4.06-4.97 8.68-9.46 12.53-14.61 6.18-8.21 12.79-16.16 17.7-25.24 11.55-18.2 21.26-37.75 27.08-58.56 1.4-4.87 3.78-9.45 4.51-14.5 0.9-6.8 2.18-13.58 1.93-20.48 0.16-9.82 0.01-19.82-3.16-29.22-2.7-7.63-2.16-16.33-6.77-23.24-3.39 12.14-5.75 24.69-11.26 36.12-3.39 6.68-5.73 13.82-9.15 20.49-5.88 10.67-10.97 21.82-18.19 31.7-9.98 14.26-20.58 28.16-32.54 40.81-9.53 7.95-16 18.66-24.37 27.68-4.06 4.77-8.08 9.59-12.53 14.02-5.47 5.45-10 11.73-15.16 17.47-9.55 10.99-18 22.88-26.65 34.58-7.38 11.82-14.22 23.98-20.37 36.48-8.63 19.79-16.26 40.15-20.46 61.37-1.06 5.94-2.48 11.81-3.56 17.74-0.75 4.08-0.78 8.31-2.2 12.24-0.46 1.9-2.54 2.44-3.97 3.42-0.19-17.9-1.57-35.85 0.1-53.71q1.12-7.72 1.81-15.48c2-15.63 8.56-30.09 14.08-44.69 4.98-10.65 10.19-21.27 17.09-30.84 6.24-8.3 11.95-17.11 19.59-24.23 7.21-7.63 12.56-16.76 18.45-25.39 4.91-7.12 7.83-15.3 11.84-22.89 4.12-7.29 7.77-14.86 10.52-22.79 1.01-2.92 1.05-6.03 1.1-9.08-5.53 6.89-11.58 13.33-17.26 20.09-6.39 7.21-13.57 13.67-20.08 20.77-5.77 6.5-12.81 11.68-19.27 17.46-17.15 16.46-36.7 30.15-55.89 44.08-6.08 5.11-12.85 9.75-17.16 16.57-6.68 10.13-12.2 21.3-14.33 33.33-0.99 5.45-0.74 11.01-0.76 16.52-0.16 8.43 2.42 16.66 5.87 24.27 3.19 6.75 4.91 14.13 5.73 21.53 0.48 10.57 0.66 21.33-2.04 31.65-4.23 15.89-8.77 31.89-16.51 46.48-9.38 15.57-22.08 29.5-38.08 38.39-14.1 8.15-31.34 10.48-47.21 7.27 4.51-2.33 9.31-3.95 13.86-6.17 7.85-4.01 15.13-9.02 22.01-14.5 12.96-9.58 23.06-22.7 30.25-37.05 4.06-10 9-19.73 11.38-30.33 2.42-10.56 5.1-21.41 3.59-32.3-1.58-8.1-7.23-14.76-8.37-23.03-1.49-9.12-5.27-17.89-4.95-27.25 0.13-7.2-0.59-14.59 1.6-21.58 2.61-8.78 4.34-17.92 8.57-26.13 8.68-17.21 22.1-32.07 38.53-42.18 5.95-3.77 11.45-8.15 17.08-12.35 10.99-8.3 22.13-16.49 31.81-26.35 7.56-7.77 16.33-14.22 23.88-22.01 6.06-5.63 12.63-10.77 17.78-17.32 3.99-5.01 8.53-9.52 12.75-14.34 5.75-7.2 12.19-13.91 16.96-21.85 8.98-12.23 17.63-24.72 25.56-37.66 3.6-5.7 6.24-12.23 11.63-16.58 1.44 11.4 1.18 23-0.3 34.37-0.94 7.62-4.87 14.41-6.2 21.94-1.31 6.41-2.18 12.93-4.39 19.12-1.47 3.91-2.08 8.07-2.15 12.25 10.24-8.02 18.37-18.51 24.3-30.01 3.39-6.64 7.68-12.77 10.95-19.46 5.22-10.66 10.44-21.33 14.97-32.31 6.06-12.05 9.36-25.34 11.07-38.67 1.63-8.61 0.89-17.41 1.06-26.12 0.26-9-1.44-17.88-2.84-26.74-2.88-11.3-4.21-22.94-7.39-34.18-1.49-4.98-2.34-10.16-2.13-15.37z"/>
		<path class="s0" d="m520.37 375.95c13.8-4.91 29.11-4.09 43 0.07 6.08 1.91 11.52 5.35 17.17 8.24 5.21 2.71 9.34 6.92 13.72 10.73 5.45 4.76 12.82 6.07 18.97 9.61 5.26 3.02 9.94 6.98 14.03 11.46 4.75 5.15 6.6 12.09 9.22 18.41 2.05 4.88 1.89 10.23 1.63 15.42-6.51-3.05-12.44-7.98-19.85-8.51-10.76-0.84-22.14-0.94-31.98 4.11-1.96 1.16-5.39 2.15-4.59 5.09 1.21 4.09 3.79 7.6 5.23 11.62 2.61 7.08 5.54 14.04 7.7 21.29 1.75 5.7 4.35 11.16 5.15 17.13 0.9 6.9 4.06 13.34 4.17 20.37 0.54 11.22 0.64 22.47 0.15 33.69-0.28 7.64-2.7 14.96-4.6 22.3-1.23 4.73-3.24 9.21-5.36 13.6-5.07 11.14-10.2 22.56-18.55 31.68-8.63 11.61-18.7 22.13-29.84 31.36-4.62 3.84-8.24 9.01-13.93 11.41 3.27-8.23 8.5-15.46 12.02-23.57 2.92-6.66 7.14-12.64 10.3-19.18 6.67-15.25 15.23-29.59 21.65-44.96 8.11-16.75 9.39-36.21 5.67-54.29-1.13-6.37-4.99-11.79-6.51-18.04-2.03-8.03-5.52-15.56-8.53-23.24-4.1-10.6-8.73-20.99-13.13-31.47-1.41-3.56-2.17-8.01 0.18-11.34 2.52-3.6 6.22-6.16 10.01-8.28 6.75-3.69 13.73-7.16 19.74-12.02 0.07-1.77-1.83-2.53-2.95-3.53-9.47-6.32-18.8-13.99-30.43-15.64-7.09-0.6-14.3-0.68-21.33 0.49-11.42 2.96-20.07 11.51-28.32 19.45-0.01 0.44-0.02 1.33-0.03 1.78 2.65 0.44 5.55 0.39 7.91 1.83 7.67 5.71 12.22 14.47 15.41 23.28 3.32 7.36 3.96 15.5 6.39 23.13 1.66 5.48 1.48 11.26 1.74 16.91 0.12 7.72 0.25 15.5-0.83 23.17-4.24 21.53-13.66 43.2-31.1 57.27-7.64 6.34-14.44 13.97-23.52 18.29-5.3 2.6-10.52 5.52-16.26 7.03-5.87 1.54-11.84 2.62-17.79 3.77-9.51 1.45-19.17 0.86-28.72 0.25q0.08-1.54 0.18-3.07c7.21-1.68 14.71-2.75 21.33-6.26 9.51-4.4 18.1-10.44 26.79-16.25 7.89-6.3 15.84-12.7 22.01-20.79 6.26-6.84 11.03-14.8 14.77-23.25 5.48-8.97 8.53-19.43 8.38-29.96 0.17-10.69 0.09-21.76-3.86-31.84-2.53-4.68-4.47-9.65-7.04-14.28-1.19-2.31-3.78-3.21-6.23-3.15-6.92-0.23-14.04 0.88-20.79-1.25-7.87-1.95-14.35-7.24-19.75-13.06-4.27-4.53-5.91-10.69-8.3-16.26-3.03-6.83-2.05-14.48-1.64-21.7 4.4 3.42 7.71 8.31 12.97 10.54 7.01 3.26 15.42 2.48 22.23-0.89 8.51-4.25 15.23-11.1 22.52-17.02 7.19-4.95 14.95-9.33 23.42-11.68z"/>
	</g>
</svg>