<svg version="1.2" xmlns="http://www.w3.org/2000/svg" viewBox="0 0 1000 1000" width="512" height="512">
	<style>
		.s0 { fill: #f55c00 } 
	</style>
	<g id="#f55c00ff">
		<path class="s0" d="m859.81 0.01c5 5.69 8.57 12.42 12.35 18.93 8.08 12.96 13.99 27.1 21.36 40.45 7.01 11.6 9.87 25.02 14.54 37.62 4.38 11.57 6.01 23.9 8.1 36.02 1.94 9.18 2.22 18.57 2.06 27.91 0.68 21.03-3.84 42.08-12.12 61.36-0.77 2.05-1.24 4.19-1.67 6.32 13.19-13.63 23.51-29.68 33.38-45.78 2.18-3.95 3.55-8.27 5.69-12.24 5.42-9.68 9.1-20.2 13.73-30.26 2.46-5.14 3.86-10.73 6.6-15.74 0.69 5.62 2.01 11.12 3.52 16.57 0.63 6.63 1.09 13.28 1.98 19.9 0.41 12.69 0.62 25.52-1.79 38.05-3.59 14.97-4.96 30.47-10.13 45.05-2.92 13.59-9.05 26.12-14.54 38.79-6.6 15.01-15.89 28.59-24.33 42.58-3.69 6.29-8.91 11.52-12.44 17.91 5.31-2.6 10.07-6.15 14.91-9.53 6.75-4.76 13.27-9.92 18.89-16.01 6.26-6.76 14.26-11.75 19.92-19.09 2.13-2.82 4.88-5.12 8.15-6.51 0.01 4.24 0.3 8.63-1.12 12.71-1.17 3.6-2.78 7.08-3.37 10.84-0.59 3.59-0.94 7.25-2.11 10.72-5.31 15.87-11.42 31.52-19.33 46.29-3.37 6.78-7.89 12.89-11.62 19.47-4.68 8.09-10.88 15.12-16.87 22.24-8.3 10.61-18.66 19.3-28.63 28.26-4.21 3.47-8.56 6.82-12.07 11.02 7.28-1.32 14-4.56 21.1-6.53 15.21-4.38 28.78-12.74 42.88-19.68 14.37-7.78 28.17-16.56 42.57-24.3-6.15 13.22-15.18 24.71-23.52 36.55-5.51 8.04-12.05 15.26-18.07 22.9-4.82 6.73-10.97 12.32-16.84 18.09-9.7 8.78-19.55 17.49-30.82 24.21-13.13 9.65-27.53 17.31-41.78 25.1 15.37 1.71 30.57-1.85 45.64-4.31 7.49-0.86 14.76-3.17 22.33-3.29-6.04 8.98-12.75 17.71-21.24 24.52-3.96 3.04-7.85 6.16-11.88 9.11-22.17 16.18-48.06 26.2-74.07 34.36-10.28 3.34-21.31 3.7-31.36 7.82 6.46 3 13.02 6.1 20.13 7.18 4.21 0.63 8.29 1.87 12.32 3.24 6.72 2.25 13.86 2.52 20.79 3.76 6.85 1.27 13.9 0.16 20.74 1.62-8.86 6.81-19.08 11.62-29.62 15.2-21.82 8.95-45.56 13.26-69.13 12.52-7.65 0.19-15.15-1.75-22.78-1.82-6.08-0.13-11.69-2.72-17.63-3.7 9.08 10.33 22.27 15.67 35.28 19.05 10.42 2.3 21.17 2.05 31.78 2.2q-0.21 1.29-0.38 2.59c-5.14 1.43-9.96 3.72-14.74 6.03-8.1 3.96-17.04 5.68-25.82 7.48-11.49 1.91-23.23 2.94-34.84 1.58-10.66-1-20.91-4.29-31.16-7.22-11.02-3.36-20.86-9.54-31.65-13.46 1.56 5.02 4.41 9.49 7.64 13.59 5.15 6.51 9.81 13.49 15.94 19.15 4.37 4.18 9.99 6.89 13.86 11.63-6.33 0.47-12.87 0.66-18.96-1.4-8.26-2.7-16.86-4.53-24.64-8.49-6.03-3.04-12.43-5.33-18.12-8.99-3.9-2.54-8.09-4.56-12.23-6.67-7.45-3.83-14.23-8.82-21.59-12.83-0.29 12.8-0.07 25.61-0.2 38.41 0.05 2.75-0.09 5.95 2.1 8.02 3.79 3.94 9.14 5.65 13.81 8.29 9.46 5.2 19.07 10.46 26.97 17.93 6.35 5.98 12.83 12.06 17.15 19.75 3.47 6.16 7.85 11.85 10.57 18.41 3.41 9.9 6.88 19.93 7.57 30.46 0.52 8.64 0.59 17.38-0.73 25.95-2.37 10.94-5.76 21.86-11.79 31.39-1.45-12.2-1.9-24.76-6.45-36.33-3.19-7.47-8.7-13.69-14.97-18.74 1.14 5.56 2.82 11.04 3.48 16.7 1.15 16.1 1.29 32.66-3.82 48.17-2.73 9.79-8.3 18.34-13.27 27.09-1.37 2.3-3.04 4.42-4.95 6.31-6.86 6.84-13.74 13.99-22.51 18.39-9.29 5.09-19.85 9.75-30.68 7.76 7.9-5.09 16.51-9.36 22.89-16.47 7.41-6.77 11.07-16.47 13.17-26.05 1.48-8.46 0.29-17.19-2.22-25.34-2.03-6.51-5.57-12.39-8.28-18.61-3.33-7.71-7.96-14.78-12.94-21.51-0.97 16.55-3.05 33.35-9.61 48.72-4.78 11.32-10.05 22.42-15.66 33.35-4.81 8.71-11.22 16.48-15.37 25.58-6.23 13.04-13.19 25.85-17.38 39.75-3.11 10.58-7.09 20.97-8.54 31.97h-0.07c-6.13-17.44-8.99-36.06-17.66-52.56-4.87-8.74-8.06-18.29-12.94-27.02-3.6-7.27-8.97-13.54-11.95-21.11-5.53-13.12-11.62-26-16.67-39.32-2.54-6.86-6.16-13.52-6.62-20.94-0.39-5.93-0.6-11.87-0.83-17.8-2.96 0.71-3.58 3.91-4.92 6.19-7.28 13.32-16.59 26.22-18.82 41.6-0.74 7.46-0.96 15.14 0.89 22.47 2.58 10.18 9.69 18.53 17.58 25.14 5.41 4.75 11.98 7.86 17.75 12.11-5.96 0.46-12-0.18-17.64-2.22-7.29-2.6-14.63-5.48-20.87-10.17-7.05-5.2-13.14-11.61-18.67-18.37-8.33-11.66-13.35-25.35-16.75-39.18-2.68-10.41-1.48-21.23-1.67-31.85-0.21-7.22 1.56-14.24 2.74-21.3-5.93 4.15-10.96 9.83-13.52 16.67-3.53 11.56-6.93 23.41-6.2 35.63-0.63-0.02-1.89-0.08-2.52-0.1-3.68-8.41-7.72-16.86-8.72-26.1-2.37-11.11-2.32-22.53-1.74-33.82 0.33-5.46 2.15-10.65 3.57-15.89 3.01-12.16 10.07-22.75 16.88-33.08 6.31-8.27 13.83-15.64 22.08-21.98 8.86-6.59 19.13-10.85 28.68-16.3 3.49-2.04 7.15-5.22 7-9.64 0.04-12.91 0.1-25.82-0.08-38.72-5.38 2.05-10.41 4.89-15.31 7.89-5.21 3.22-10.95 5.52-15.95 9.1-5.63 4.1-12.22 6.48-18.36 9.65-5.87 3.07-12.5 4.02-18.68 6.23-9.21 3.12-18.97 4.61-28.69 3.97 5.81-5.03 12.33-9.24 17.8-14.69 3.57-3.53 6.17-7.86 9.28-11.77 4.79-6.17 9.7-12.36 12.96-19.52-7.3 2.85-13.46 7.94-20.84 10.61-14.45 5.42-29.38 9.98-44.79 11.53-17.08 2.16-34.31-1.09-50.66-5.92-7.8-2.58-15.87-5.02-22.56-9.97 7.42-0.79 15.02 0.05 22.29-1.95 15.27-3.48 30.66-9.37 41.88-20.7-5.85 1.2-11.58 3.07-17.58 3.37-6.15 0.32-12.24 1.39-18.39 1.65-12.7 0.84-25.33-0.97-37.91-2.35-9.13-2.19-18.45-3.94-27.17-7.55-5.17-2.17-10.63-3.59-15.68-6.05-7.11-3.41-14.58-6.5-20.51-11.83 6.76-1.05 13.64-0.26 20.38-1.39 5.55-0.94 11.26-0.97 16.67-2.66 5.77-1.77 11.5-3.69 17.43-4.85 6.4-1.29 12.25-4.26 18.19-6.84-17.59-3.4-35.18-7.06-52.3-12.43-7.87-3.22-15.35-7.32-23.05-10.92-13.81-7.76-26.89-16.86-38.96-27.13-4.24-3.39-8.58-6.71-12.04-10.94-3.93-4.81-8.49-9.05-12.5-13.79 24.47 2.33 48.63 7.11 73.1 9.41-0.01-4.26-4.62-4.42-7.53-5.92-17.86-7.77-34-18.85-50.12-29.65-14.05-11.16-27.55-23.34-38.2-37.86-4.71-5.27-9.31-10.63-13.61-16.25-4.84-5.94-8.61-12.66-13.44-18.62-5.55-6.92-9.51-14.91-13.54-22.77 18.78 10.2 36.96 21.44 55.74 31.63 6.45 3.51 13.6 5.46 20.11 8.87 4.31 2.26 8.79 4.19 13.42 5.7 6.37 2.08 12.55 4.8 19.12 6.27-7.28-8.27-15.68-15.45-24.17-22.43-4-3.29-7.29-7.32-10.64-11.24-7.06-7.93-14.2-15.86-20.04-24.76-5.75-9.78-12.41-19.05-17.21-29.36-5.33-11.45-10.63-22.92-15.25-34.68-2.09-5.12-3.09-10.59-4.64-15.88-2.06-9.27-5.47-18.53-4.33-28.17 3.46 3.34 6.38 7.17 9.62 10.72 6.91 7.41 14.35 14.3 21.44 21.54 3.59 3.69 7.46 7.11 11.6 10.19 5.42 3.99 10.67 8.46 17.14 10.68-2.85-6.39-7.8-11.46-11.27-17.47-8.02-13.44-16.61-26.64-22.86-41.04-3.46-8-7.43-15.81-10.03-24.16-4.03-11.32-7.9-22.81-9.53-34.77-2.23-13.59-4.34-27.28-4.31-41.08 0.41-9.68-1.17-19.37 0.01-29.03 0.42-8.58 1.67-17.09 2.95-25.58 7.62 13.15 11.94 27.9 19.3 41.18 4.31 7.52 7.54 15.62 12.3 22.89 8.33 13.15 17.35 26.03 28.25 37.19-1.63-6.5-4.58-12.54-6.74-18.86-3.06-10.07-6.29-20.25-6.79-30.85-1.18-10.41-2.02-20.96-0.64-31.39 0.99-6.86 0.85-13.9 2.7-20.63 2.01-7.11 2.32-14.61 4.72-21.62 3.59-10.48 6.8-21.08 10.63-31.47 1.94-5.37 5.46-9.97 7.7-15.2 2-4.65 3.68-9.45 6.14-13.9 6.75-12.41 13.13-25.09 21.23-36.71 1.61-2.36 3.64-4.4 5.77-6.29-1.33 6.56-3.67 12.85-5.6 19.25-2.22 7.17-2.31 14.76-4.11 22.03-1.91 7.19-1.72 14.67-2.13 22.04-0.03 11.04-0.22 22.26 2.44 33.06 1.49 6.56 1.52 13.44 3.93 19.78 2.81 7.23 4.45 14.9 7.92 21.87 5.07 10.47 9.96 21.08 16.42 30.8 4.69 8.06 9.48 16.18 15.94 22.98 4.5 4.57 8.04 10.01 12.87 14.27-1.89-8.04-5.56-15.55-7.15-23.67-1.78-9.44-4.45-18.7-6.39-28.11-1.05-10.48-0.91-21.07-0.29-31.58 2.43 1.89 4.58 4.14 5.96 6.92 9.47 17.39 21.22 33.37 32.74 49.42 6.56 8.68 13.49 17.08 21.09 24.88 4.64 5.67 9.69 10.97 15.31 15.67 9.36 8.98 19.16 17.49 28.72 26.26 11.8 11.45 25.18 21.09 38.49 30.67 11.39 7.25 22.06 15.89 30.28 26.67 7.57 9.76 12.48 21.3 15.92 33.09 2.44 11.92 4.31 24.47 1.23 36.46-1.19 6.07-2.23 12.26-4.9 17.91-2.86 6.13-4.89 12.75-4.96 19.58-0.08 9.05-0.75 18.3 1.66 27.14 2.76 8.84 6.17 17.46 9.71 26.01 2.4 5.91 6.09 11.16 9.79 16.31 6.27 8.92 14.86 15.77 22.98 22.92 6.82 6 14.65 10.66 22 15.96-2.51 2.06-5.06 4.57-8.47 4.88-6.18 0.47-11.81-2.63-17.44-4.67-6.06-2.16-11.8-5.24-16.78-9.32-13.53-11.12-24.27-25.38-32.03-41.03-2.58-5.98-3.97-12.39-6.7-18.31-2.99-6.5-3.56-13.72-5.34-20.57-1.87-6.93-1.43-14.16-1.92-21.24 0.34-12.07 7.9-22.39 9.54-34.2 1.08-7.93 0.48-15.95 0.45-23.92 0.06-8.38-3.19-16.39-7.28-23.55-4.04-6.75-7.68-14.08-14.04-18.99-19.83-15.42-40.46-29.89-59.02-46.87-3.45-3.23-6.95-6.4-10.61-9.38-6.29-5.03-11.39-11.32-17.27-16.8-8.7-8.09-15.23-18.28-24.55-25.72 1.62 10.79 6.53 20.72 12.52 29.72 8.51 15.42 17.56 30.65 28.7 44.34 7.56 9.88 15 19.89 21.44 30.54 4.55 8.05 7.88 16.71 11.93 25.01 3.88 7.8 5.53 16.41 7.98 24.71 1.87 5.95 2.25 12.22 3.89 18.22 1.84 6.45 1.3 13.22 1.57 19.84 0.36 12.73 0.27 25.63-2.82 38.06-3.18-13.92-5.86-27.96-10.04-41.63-2.91-13.32-6.74-26.51-12.8-38.77-5.55-14.09-13.64-26.94-20.82-40.2-2.24-4-5.38-7.37-7.99-11.11-5.92-8.37-11.79-16.79-18.19-24.81-11.39-14.25-23.86-27.61-35.07-42-7.88-10.04-17.37-18.67-25.14-28.79-7.28-9.06-14.67-18.05-21.63-27.37-9.97-14.87-17.36-31.27-24.22-47.75-3.29-8.44-4.31-17.64-8.24-25.84-4.79 10.43-4.75 22.2-7.82 33.13-0.92 7.21-0.89 14.63-0.05 21.85 1.69 5.56 2.26 11.31 2.96 17.05 1.65 6.04 3.64 11.99 5.19 18.07 2.06 8.02 6.79 14.93 9.98 22.5 3.62 8.64 9.11 16.29 13.7 24.42 5.35 8.49 11.61 16.39 17.98 24.14 5.99 6.33 11.33 13.25 17.5 19.41 7.85 7.17 15.89 14.13 23.81 21.22 7.11 6.88 14.18 13.84 22.05 19.86 3.56 2.72 6.93 5.73 9.84 9.15-10.24-2.24-19.35-7.71-28.76-12.09-7.12-3.35-14.04-7.09-20.56-11.52-20.28-10.98-39.28-24.19-57.17-38.71-5-4.01-9.74-8.33-14.92-12.11-10.07-7.84-18.57-17.43-27.05-26.9-5.41-5.04-9.48-11.32-15.04-16.2 0.72 5.57 3.11 10.69 4.7 16.03 2.59 12.75 9.28 24.1 14.58 35.85 4.95 11.74 11.83 22.54 19 33.04 6.2 7.22 10.97 15.51 17.14 22.75 9.86 11.44 19.6 23.08 31 33.04 8.12 6.89 15.64 14.52 24.4 20.62 5.31 3.57 9.63 8.38 14.96 11.92 4.96 3.37 9.72 7 14.67 10.38 5.05 3.5 10.58 6.31 15.34 10.26-9.67 0.37-18.62-3.6-27.68-6.32-14.81-3.88-29.37-8.84-43.3-15.19-4.15-1.69-8.3-3.43-12.03-5.93-7.77-5.25-16.62-8.56-24.64-13.38-12.75-6.55-25.09-13.91-36.72-22.3 1.38 3.41 3.11 6.67 5.3 9.64 4.9 6.77 9.47 13.78 14.67 20.34 3.87 4.8 7.18 10.11 11.81 14.27 5.47 4.83 9.45 11.1 15.11 15.74 6.26 5.1 11.49 11.32 17.82 16.34 11.55 9.27 23.53 18.04 36.24 25.67 9.3 4.86 17.7 11.29 27.25 15.7 9.37 4.47 18.68 9.18 28.55 12.48 2.24 0.81 4.32 2 6.36 3.23-9.43 0.78-18.91 0.28-28.35 0.43-7.42 0.27-14.69-1.48-22.08-1.53-20.92-0.65-41.08-6.71-61.29-11.55-6.27-1.38-12.07-4.34-18.4-5.44 11.77 10.45 24.97 19.24 38.54 27.18 13 7.03 25.95 14.54 40.25 18.65 9.74 2.76 18.91 7.4 28.97 8.99 10.75 2.28 21.42 5.09 32.44 5.77 6.68 1.5 13.93-0.05 20.22 3.05-4.37 1.71-8.83 3.19-13.21 4.88-9.82 3.74-20.41 4.57-30.47 7.43-7.14 2-14.6 2.17-21.91 3.07-15.82 2.52-31.89 0.75-47.81 1.61 11.91 9.29 26.81 12.93 40.87 17.62 11.38 3.25 23.24 4.18 34.92 5.73 10.99 0.77 22.03 0.05 33.03 0.36 13.77 0.5 27.44-2.25 41.21-0.94-16.97 11.49-35.27 20.92-52.22 32.47-6.4 4.71-14.18 7.25-20.08 12.7 10.34 1.41 20.81 0.45 31.1-0.91 5.44-0.75 10.99-0.84 16.35-2.2 7.03-1.5 13.71-4.36 20.85-5.44 7.4-1.04 13.95-4.9 21.19-6.56 8.48-2.09 16.77-4.94 25.34-6.66-3.94 7.37-8.89 14.14-14.14 20.63-10.8 13.86-24.77 24.72-36.96 37.27 5.87-0.54 11.72-1.58 17.22-3.73 9.2-3.62 18.96-5.9 27.72-10.59 6.34-3.43 13.16-5.85 19.44-9.4 7.23-4.04 14.29-8.4 21.69-12.14 0.46 12.05 0.57 24.32-2.75 36.02-1.03 3.39-2.07 6.78-2.89 10.24 11.4-5.89 22.32-12.81 32.28-20.92 1.85-1.59 4.12-3.64 3.55-6.36-0.97-8.3-5-15.78-7.15-23.78-2.41-8.73-7.04-17.15-14.4-22.64-4.65-3.44-9.34-6.88-14.5-9.53-17.21-8.78-33.78-18.93-48.92-30.97-5.43-4.18-11.18-8.05-15.72-13.24-8.05-9.05-16.07-18.16-23.34-27.85-18.41-25.22-30.29-54.73-37.17-85.05-1.32-6.36-3.66-12.49-4.48-18.94-1.09-16.69-2.86-33.43-1.75-50.17 4.27 6.14 5.56 13.6 7.73 20.61 1.77 5.77 2.3 11.83 3.93 17.64 2.67 8.55 4.44 17.41 8.03 25.66 2.82 6.43 4.47 13.31 7.37 19.7 3.56 7.37 6.94 14.82 10.68 22.1 13.09 26.43 32.26 49.56 54.7 68.58 7.36 8.55 16.95 14.72 26.64 20.31 11.75 6.45 24.92 10.28 35.8 18.29 11.81 8.72 20.35 21.17 26.71 34.24 3.66 8.91 6.03 18.29 8.51 27.58 3.02 11.26 3.6 22.96 6.1 34.33 0.97 4.68 1.1 9.48 2.04 14.17 3.88-5.61 6-12.18 8.99-18.27 3.56-7.16 5.62-15 6.55-22.92 1.64-12.35 0.36-24.82 1-37.22 3.32 4.89 4.54 10.75 7 16.05 2.89 6.37 3.04 13.48 3.21 20.35 0.24 9.72-0.52 19.5-2.63 29.02-0.98 4.7-4.01 8.59-5.51 13.1-5.31 15.66-16.1 28.97-28.77 39.35-10.27 7.96-23.11 11.71-33.36 19.7-6.52 5.14-13.52 9.9-18.43 16.72-7.93 9.25-15.7 19.15-19.14 31.05 7.74-4.56 14.56-10.59 22.61-14.66 12.15-5.56 24.64-10.35 36.92-15.6-4.84 9.14-11.53 17.18-15.78 26.66-5.08 8.97-8.12 18.83-11.28 28.59-1.67 5.28-1.46 10.92-2.99 16.24-2.22 7.61-0.75 15.54-0.95 23.32q1.68-0.11 3.39-0.2c1.24-3.26 2.44-6.53 3.89-9.71 7.24-15.15 15.4-29.99 26.26-42.89 12.2-14.07 24.29-28.49 39.2-39.82 5.18-3.74 9.09-8.82 13.69-13.18-0.01 8.43-5.09 15.41-8.26 22.86-2.97 8.11-7.55 15.68-8.79 24.36-4.21 13.98-3.44 28.73-2.56 43.11 1.27 9.89 4.91 19.45 10.1 27.95 3.3 6.67 6.13 13.57 9.83 20.05 7.77 14.16 14.15 29.09 23.1 42.58 6.44-11.16 12.5-22.53 18.42-33.96 6.13-12.37 13.16-24.27 19.44-36.54 2.03-5.94 3.36-12.12 4.98-18.17 1.36-11.53 1.48-23.3-0.32-34.8-1.45-10.61-4.06-21.18-9-30.75-3.42-8.47-7.72-16.55-11.07-25.05 6.31 3.95 12.22 8.51 18.19 12.95 12.07 10.62 22.76 22.75 32.34 35.66 7.5 9.73 14.38 19.94 20.16 30.8 4.8 8.66 10.24 17.02 13.56 26.42 0.92 0.04 2.77 0.13 3.69 0.17 0.03-11.65 0.4-23.46-2.17-34.91-2.2-8.46-6.15-16.33-9-24.56-4.35-13.03-12.35-24.32-19.5-35.89 10.2 1.98 19.34 7.07 28.69 11.36 6.09 2.76 12.11 5.78 17.53 9.74 3.77 2.76 7.47 5.66 11.62 7.88-1.88-6.75-4.67-13.25-8.36-19.2-3.91-6.29-9.59-11.15-14.37-16.72-5.14-6-12.15-9.86-18.36-14.6-7.26-5.49-16.1-8.22-23.67-13.19-6.1-3.75-11.08-8.94-16.09-13.97-8.11-8.18-14.18-18.28-17.97-29.13-2.5-7.67-6.92-14.82-7.41-23.05-0.86-11.75-1.02-23.71 1.44-35.3 1.22-5.98 4.81-11.05 6.91-16.71 1 7.64 0.32 15.33 0.51 22.99 0.06 5.1 1.77 9.97 2.68 14.95 1.09 5.61 2.07 11.34 4.43 16.6 3.45 7.61 6.01 15.71 10.88 22.6 1.33-9.09 0.1-18.39 2.05-27.4 2.85-16.77 8.02-33.01 13.02-49.23 5.33-13.16 12.66-26.41 24.7-34.55 5.34-3.78 11.73-5.53 17.43-8.64 12.15-6.62 24.64-12.78 35.61-21.31 11.1-8.48 20.63-18.77 31.18-27.88 8.99-9.15 16.7-19.51 23.97-30.06 8.37-12.61 15-26.29 20.71-40.28 6.94-13.3 11.11-27.76 15.97-41.87 1.61-9.17 4.37-18.06 7.41-26.84 2.01-5.62 2.93-11.58 5.32-17.07 1.45 11.94 0.78 24.04-0.63 35.96-0.89 12.33-0.77 25.28-6.11 36.71-2.25 6.69-3.3 13.74-5.85 20.34-2.89 7.61-4.6 15.63-7.94 23.06-6.91 14.44-15.38 28.11-25.09 40.84-6.13 8.41-13.97 15.34-20.68 23.27-5.38 6.35-12.29 11.08-18.83 16.12-12.7 9.62-25.95 18.59-40.12 25.92-8.77 4.49-17.04 10.08-24.12 16.96-4.41 4.28-6.87 10-9.65 15.36-3.7 7.02-5.98 14.71-7.59 22.46-0.65 3.89-1.11 8.76 2.19 11.65 5.74 5.11 12.15 9.44 18.81 13.26 5.23 3.01 10.23 6.46 15.87 8.7-3.14-8.35-7.17-16.63-7.63-25.69q-0.54-11 0.01-21.99c9.42 4.67 18.23 10.48 27.71 15.04 7.09 3.42 13.72 7.82 21.16 10.52 10.62 3.9 21.18 8.87 32.7 9.18-3.19-6.06-8.59-10.43-12.69-15.81q-3.45-4.52-7.64-8.35c-5.83-5.2-10.24-11.72-15.75-17.24-4.23-5.62-9.15-10.86-12.21-17.24 8.21 1.24 15.56 5.42 23.57 7.45 6.9 1.62 13.05 5.45 20.05 6.72 10.28 2.28 20.27 5.82 30.7 7.4 5.39 0.56 10.83 0.67 16.21 1.41 9.25 1.35 18.64 1.05 27.94 0.53-8.11-4.93-17.36-7.78-24.95-13.58-16.61-10.47-33.77-20.46-48.33-33.76 6.12 0.7 12.02 2.74 18.19 3.11 14.98 1.02 30.02 0.91 45.04 0.67 12.01-0.26 23.88-2.39 35.51-5.3 8.08-1.26 15.56-4.63 23.36-6.92 8.38-2.57 16.31-6.37 24.2-10.14-8.14-1.43-16.44-0.11-24.58-1.45-6.4-1.01-12.94-0.61-19.33-1.72-6.7-1.24-13.62-0.8-20.21-2.66-10.94-2.85-22.14-4.67-32.97-7.95-4.57-1.43-9.59-2.6-12.79-6.45 12.84-0.74 25.64-2.12 38.33-4.29 7.58-1.66 14.95-4.2 22.61-5.55 8.31-1.53 16.06-4.99 24-7.75 8.3-2.9 15.75-7.69 23.91-10.92 11.25-5.29 21.64-12.22 31.97-19.07 6.51-4.72 13.67-8.68 19.26-14.57q-17.48 4.54-35.01 8.85c-8.91 2.77-18.16 3.99-27.37 5.25-12.48 2.58-25.22 2.88-37.86 4.01-9.77 0.44-19.56 0.47-29.32-0.11 9.1-4.32 18.87-7.14 27.77-11.93 6.9-3.82 14.16-6.96 21.01-10.89 12.87-8.06 25.98-15.82 37.97-25.2 10.03-7.47 18.96-16.26 28.51-24.31 5.84-5.19 10.06-11.93 16.07-16.96 4.43-3.7 7.23-8.81 10.72-13.32 3.46-4.55 7.12-8.96 10.29-13.73 3.64-5.53 7.87-10.75 10.36-16.95-11.67 8.4-23.55 16.67-36.68 22.64-7.53 4.72-16 7.65-23.36 12.66-5.14 3.25-11.05 4.86-16.56 7.33-7.92 3.62-16.22 6.3-24.3 9.54-10.94 3.54-22.26 5.78-33.26 9.11-3.24 1.01-6.64 1.44-10.01 1.71 7.18-5.56 15.31-9.73 22.59-15.17 14.14-10.38 28.07-21.11 40.97-33.01 7.44-6.24 14.39-13.06 20.9-20.26 8.67-10.04 17.67-19.86 25.06-30.92 12.71-16.12 23.12-34.07 30.93-53.06 2.5-5.53 6.21-10.61 7.39-16.67 1.81-8.47 6.67-16.07 7.35-24.81-2.71 3.07-5.26 6.27-7.97 9.33-12.94 13.69-24.98 28.51-40.41 39.56-20.92 17.32-43.24 33.02-67.18 45.88-10.09 6.39-20.98 11.3-31.93 15.99-5.89 2.47-11.29 6.02-17.33 8.14 1.64-2.17 3.45-4.25 5.71-5.81 7.21-4.98 13.76-10.85 20.25-16.72 8.43-9.28 18.5-16.82 27.56-25.45 8.04-7.37 14.8-15.95 22.03-24.08 6.9-8.82 13.9-17.65 19.39-27.45 10.43-16.7 19.1-34.59 24.44-53.58 5.88-14.54 6.5-30.61 5.32-46.08-0.45-7.83-3.9-15.02-4.91-22.75-0.55-3.98-1.88-7.82-3.83-11.33-2.31 7.46-3.76 15.16-6.26 22.56-1.83 6.08-4.75 11.73-7.29 17.52-4.85 12.24-11.38 23.72-17.92 35.11-10.22 15.56-21.55 30.43-34.24 44.05-6.9 6.07-12.44 13.41-18.15 20.55-5.82 6.83-11.62 13.71-17.93 20.11-12.44 14.03-24.27 28.61-35.18 43.87-17.42 25.81-30.16 54.69-37.88 84.84-2.18 8.63-3.03 17.58-6.04 25.99-1.7 4.58-3.04 9.27-4.66 13.88-0.38-19.42-1.92-38.99 0.99-58.29 0.68-8.01 2.08-15.95 4.68-23.56 6.42-18.88 13.91-37.71 25.72-53.93 5-6.67 9.64-13.68 15.6-19.55 7.16-7.06 12.42-15.7 17.98-24 5.91-8.58 9.3-18.54 14.49-27.53 3.68-7.69 8.28-15.53 8.05-24.33-3.45 4.02-6.85 8.08-10.38 12.03-9.08 10.87-19.44 20.56-29.19 30.8-11.75 9.86-22.68 20.67-34.89 29.98-12.29 9.84-25.7 18.23-37.67 28.48-7.19 5.82-11.54 14.23-15.63 22.34-6.3 12.76-7.73 27.53-5.44 41.46 1.46 9.04 6.95 16.76 8.58 25.74 1.85 7.91 1.74 16.1 1.41 24.17-0.53 9.34-3.4 18.3-6 27.23-2.95 9.87-6.43 19.65-11.32 28.75-9.46 15.97-22.98 29.97-39.89 37.99-12.14 5.72-26.05 6.79-39.14 4.4 5.07-2.56 10.5-4.35 15.45-7.15 8.6-4.7 16.45-10.65 23.89-16.99 10.72-9.79 19.27-22.04 24.57-35.57 3.18-7.36 6.4-14.78 8.11-22.65 2.05-9.15 4.36-18.5 3.34-27.95-1.09-7.86-6.58-14.24-7.84-22.06-1.55-8.7-4.97-17.13-4.78-26.07 0.03-6.37-0.39-12.86 1.42-19.05 2.4-8.31 4.15-16.9 8.08-24.67 7.9-15.83 20.24-29.41 35.21-38.82 5.66-3.6 10.92-7.78 16.31-11.76 10.21-7.7 20.5-15.39 29.53-24.49 6.47-6.58 13.85-12.16 20.39-18.66 4.99-5.02 10.67-9.33 15.44-14.58 10.5-12.51 22.24-24.08 31.13-37.87 7.27-10.13 14.49-20.31 21.04-30.93 4.01-6.11 6.85-13.1 12.33-18.13 1.55 10.52 1.23 21.28-0.17 31.8-1.87 10.38-5.74 20.28-7.75 30.63-1.37 6.33-4.25 12.35-4.18 18.96 10.49-8.06 18.3-19.05 24.21-30.78 10.08-16.37 17.65-34.1 25.38-51.66 6.22-15.84 8.85-33.04 8.28-50.02 0.67-16.48-3.93-32.46-6.88-48.52-1.44-8.5-5.03-16.67-4.61-25.44z"/>
		<path class="s0" d="m456.01 363.03c9.93-9.1 22.65-14.9 35.85-17.26 9.36-1.66 18.94-0.55 28.09 1.73 6.53 1.65 12.34 5.18 18.25 8.29 4.86 2.57 8.73 6.54 12.89 10.05 3.46 2.92 7.78 4.47 11.91 6.18 7.19 2.84 13.46 7.69 18.62 13.4 4.19 4.65 5.95 10.81 8.26 16.5 1.99 4.62 1.97 9.76 1.63 14.69-5.69-2.79-10.94-6.94-17.38-7.82-11.17-1.1-23.26-1-33.12 5.06-1.01 0.69-2.48 1.83-1.73 3.25 0.84 3.08 2.62 5.78 3.91 8.68 4.28 10.2 7.72 20.73 11.25 31.21 1.06 3.25 1.6 6.62 2.26 9.97 1 5.02 3.05 9.84 3.2 15.01 0.42 10.65 0.49 21.32 0.11 31.98-0.15 5.49-1.77 10.77-3.1 16.05-1.13 4.4-2.38 8.8-4.29 12.94-5.3 11.48-10.27 23.4-18.74 32.99-7.84 10.34-16.72 19.9-26.67 28.24-4.76 3.81-8.43 9-14.07 11.65 2.93-7.59 7.74-14.26 11.02-21.7 2.64-6.1 6.49-11.57 9.4-17.54 7.3-16.36 16.55-31.82 22.98-48.58 3.83-10.52 4.98-21.91 4.1-33.03-0.69-6.5-1.49-13.16-4.44-19.08-2.76-5.44-3.78-11.51-6-17.16-4.84-12.35-9.82-24.65-15.11-36.82-1.93-4.43-4.54-9.44-2.6-14.32 2.71-4.99 7.94-7.77 12.74-10.38 5.5-3.03 11.17-5.89 15.91-10.08-2.72-2.77-6.11-4.7-9.26-6.92-5.86-4.01-11.98-7.97-18.95-9.71-6.23-1.32-12.67-1.13-18.98-0.69-8.49 0.63-15.81 5.62-22.06 11.03-3.13 2.84-6.47 5.51-9.05 8.89 3.2 0.71 6.89 0.52 9.49 2.87 7.49 6.25 11.39 15.54 14.55 24.52 1.78 5.71 2.64 11.66 4.37 17.4 1.5 4.99 1.46 10.25 1.71 15.41 0.19 9.22 0.34 18.61-2.08 27.58-4.24 17.36-12.42 34.4-26.22 46.15-5.3 4.38-10.16 9.25-15.61 13.45-4.46 3.51-9.76 5.67-14.8 8.21-6.62 3.27-14 4.33-21.16 5.83-9.74 2.13-19.79 1.3-29.66 0.89 0.06-0.65 0.19-1.94 0.26-2.59 4.79-1.9 10.1-2.13 14.91-4.05 7.95-3.16 15.34-7.59 22.44-12.33 15.42-9.86 29.09-22.99 38.01-39.08 3.08-6.61 7.18-12.8 9.04-19.92 2.5-8.11 1.72-16.69 1.74-25.04 0-8.61-2.04-17.19-6.34-24.68-2.2-3.7-3.1-10.02-8.46-10.14-8.65-0.17-17.86 0.92-25.81-3.34-7.78-4.21-14.97-10.62-17.98-19.15-1.01-2.63-2.14-5.21-3.1-7.86-1.87-5.88-1.11-12.08-0.67-18.11 3.19 2.72 5.89 6.01 9.38 8.39 6.34 4.11 14.69 4.14 21.54 1.27 6.66-2.87 12.15-7.74 17.62-12.38z"/>
	</g>
</svg>