<svg version="1.2" xmlns="http://www.w3.org/2000/svg" viewBox="0 0 720 720" width="500" height="500">
	<style>
		.s0 { fill: #000000 } 
		.s1 { fill: #ffffff } 
	</style>
	<g id="Layer 1">
		<path id="&lt;Path&gt;" class="s0" d="m360 720c-199.08 0-360-160.92-360-360 0-199.08 160.92-360 360-360 199.08 0 360 160.92 360 360 0 199.08-160.92 360-360 360z"/>
		<path id="&lt;Path&gt;" class="s1" d="m457.97 401.55c-36.43 9.01-66.02 17.72-89.01 48.54-32.3 43.33-42.7 133.29-112.51 132.4-93.96-1.19-100.27-167.77-99.56-231.01 0.88-76.93 24.32-154.06 98.94-189.27 61.56-29.05 146.6-32.08 211.07-11.21 51.92 16.8 96.17 63.37 96.25 120.19 0.09 65.45-42.58 114.86-105.18 130.36z"/>
	</g>
</svg>