<?xml version="1.0" encoding="UTF-8" ?>
<!DOCTYPE svg PUBLIC "-//W3C//DTD SVG 1.1//EN" "http://www.w3.org/Graphics/SVG/1.1/DTD/svg11.dtd">
<svg width="1000pt" height="1000pt" viewBox="0 0 1000 1000" version="1.1" xmlns="http://www.w3.org/2000/svg">
<g id="#0077ffff">
<path fill="#0077ff" opacity="1.00" d=" M 490.73 0.00 L 508.23 0.00 C 584.14 1.34 659.70 20.04 727.29 54.65 C 793.23 88.24 851.50 136.71 896.53 195.43 C 937.66 248.92 967.77 310.84 984.44 376.23 C 994.05 413.63 999.09 452.15 1000.00 490.74 L 1000.00 508.32 C 998.54 591.84 975.94 674.90 934.48 747.44 C 897.18 813.05 844.78 869.98 782.47 912.56 C 722.04 954.01 652.37 981.88 580.03 993.55 C 556.05 997.48 531.78 999.51 507.50 1000.00 L 492.59 1000.00 C 424.15 998.90 355.96 983.75 293.64 955.42 C 232.52 927.77 177.08 887.65 131.75 838.20 C 80.45 782.47 42.15 714.86 20.66 642.22 C 7.72 598.82 0.91 553.64 0.00 508.37 L 0.00 490.96 C 1.18 434.83 11.58 378.89 31.16 326.25 C 56.71 257.17 97.78 193.87 150.51 142.45 C 189.17 104.59 234.07 73.14 282.81 49.63 C 347.47 18.35 418.93 1.47 490.73 0.00 M 168.76 304.25 C 169.83 355.42 175.68 406.67 188.91 456.18 C 200.15 497.87 216.73 538.36 240.33 574.64 C 260.10 604.71 284.35 632.13 313.29 653.66 C 335.78 671.17 361.16 684.70 387.55 695.34 C 402.67 700.76 417.90 706.01 433.58 709.60 C 469.98 718.45 507.61 721.11 545.00 720.50 C 545.01 670.92 544.99 621.34 545.01 571.76 C 570.88 574.55 596.40 582.13 618.97 595.21 C 651.42 613.44 677.99 641.27 696.48 673.45 C 705.23 688.27 711.69 704.29 717.45 720.47 C 756.90 720.55 796.36 720.48 835.81 720.50 C 830.21 702.06 824.00 683.73 815.65 666.33 C 784.37 599.98 730.77 543.83 664.61 511.74 C 671.16 507.60 677.79 503.56 684.08 499.02 C 716.07 475.73 743.84 446.71 765.83 413.82 C 787.89 380.78 803.88 343.46 810.82 304.25 C 774.99 304.25 739.16 304.24 703.33 304.26 C 691.33 345.69 669.17 384.17 639.36 415.35 C 627.73 427.17 615.39 438.52 601.23 447.26 C 584.27 458.16 565.17 466.47 545.00 468.74 C 545.00 413.91 545.02 359.08 544.99 304.25 C 509.16 304.26 473.33 304.23 437.50 304.26 C 437.49 400.34 437.51 496.41 437.49 592.49 C 416.47 587.58 397.17 576.86 380.49 563.33 C 349.56 538.43 327.51 504.04 312.69 467.53 C 291.78 415.82 284.18 359.72 282.91 304.25 C 244.86 304.25 206.81 304.24 168.76 304.25 Z" />
</g>
<g id="#ffffffff">
<path fill="#ffffff" opacity="1.00" d=" M 168.76 304.25 C 206.81 304.24 244.86 304.25 282.91 304.25 C 284.18 359.72 291.78 415.82 312.69 467.53 C 327.51 504.04 349.56 538.43 380.49 563.33 C 397.17 576.86 416.47 587.58 437.49 592.49 C 437.51 496.41 437.49 400.34 437.50 304.26 C 473.33 304.23 509.16 304.26 544.99 304.25 C 545.02 359.08 545.00 413.91 545.00 468.74 C 565.17 466.47 584.27 458.16 601.23 447.26 C 615.39 438.52 627.73 427.17 639.36 415.35 C 669.17 384.17 691.33 345.69 703.33 304.26 C 739.16 304.24 774.99 304.25 810.82 304.25 C 803.88 343.46 787.89 380.78 765.83 413.82 C 743.84 446.71 716.07 475.73 684.08 499.02 C 677.79 503.56 671.16 507.60 664.61 511.74 C 730.77 543.83 784.37 599.98 815.65 666.33 C 824.00 683.73 830.21 702.06 835.81 720.50 C 796.36 720.48 756.90 720.55 717.45 720.47 C 711.69 704.29 705.23 688.27 696.48 673.45 C 677.99 641.27 651.42 613.44 618.97 595.21 C 596.40 582.13 570.88 574.55 545.01 571.76 C 544.99 621.34 545.01 670.92 545.00 720.50 C 507.61 721.11 469.98 718.45 433.58 709.60 C 417.90 706.01 402.67 700.76 387.55 695.34 C 361.16 684.70 335.78 671.17 313.29 653.66 C 284.35 632.13 260.10 604.71 240.33 574.64 C 216.73 538.36 200.15 497.87 188.91 456.18 C 175.68 406.67 169.83 355.42 168.76 304.25 Z" />
</g>
</svg>
