<?xml version="1.0" encoding="UTF-8" ?>
<!DOCTYPE svg PUBLIC "-//W3C//DTD SVG 1.1//EN" "http://www.w3.org/Graphics/SVG/1.1/DTD/svg11.dtd">
<svg width="686pt" height="686pt" viewBox="0 0 686 686" version="1.1" xmlns="http://www.w3.org/2000/svg">
<g id="#ff662bff">
<path fill="#ff662b" opacity="1.00" d=" M 340.35 0.00 L 345.61 0.00 C 381.22 0.67 416.82 6.17 450.63 17.50 C 490.95 30.73 528.64 51.75 561.37 78.73 C 589.32 102.18 614.10 129.62 633.44 160.61 C 666.92 213.49 685.14 275.75 686.00 338.30 L 686.00 350.50 C 684.82 395.88 674.94 441.10 656.32 482.54 C 626.88 549.00 575.55 605.48 512.29 641.27 C 463.73 669.12 408.18 684.23 352.28 686.00 L 338.35 686.00 C 296.14 685.35 254.03 677.02 214.90 661.18 C 144.02 632.84 83.35 579.90 45.49 513.63 C 17.04 464.51 1.59 408.14 0.00 351.44 L 0.00 339.23 C 0.62 282.19 15.66 225.35 43.62 175.61 C 62.72 141.59 87.58 110.73 117.04 85.13 C 151.17 55.45 191.00 32.22 233.96 17.97 C 268.18 6.33 304.26 0.68 340.35 0.00 M 244.57 92.24 C 216.66 188.17 188.98 284.18 161.18 380.15 C 156.63 395.42 153.03 411.02 151.37 426.89 C 148.85 450.69 150.25 475.43 159.19 497.85 C 166.05 515.33 177.91 530.85 193.25 541.73 C 211.54 554.88 233.76 561.50 255.94 564.06 C 271.85 566.36 288.13 566.56 304.06 564.31 C 346.73 560.11 387.94 544.80 424.24 522.21 C 454.97 502.96 482.49 478.28 503.78 448.85 C 524.84 419.97 539.08 385.75 542.32 350.01 C 542.43 348.59 542.47 347.12 543.13 345.83 C 543.58 338.72 544.36 331.27 542.71 324.31 C 541.13 304.01 535.28 283.88 524.35 266.61 C 513.55 249.36 497.91 235.35 479.98 225.82 C 461.93 216.07 441.74 211.00 421.47 208.56 C 402.57 254.99 384.26 301.66 365.52 348.16 C 386.86 348.06 408.20 348.21 429.54 348.08 C 385.63 411.33 341.71 474.57 297.80 537.82 C 291.36 546.79 285.46 556.16 278.74 564.92 C 298.74 514.17 319.14 463.56 339.39 412.91 C 318.69 413.11 297.99 412.73 277.29 413.09 C 298.91 337.74 320.65 262.43 342.28 187.09 C 351.76 155.60 360.71 123.95 369.83 92.35 C 328.08 92.26 286.32 92.48 244.57 92.24 Z" />
</g>
<g id="#ffffffff">
<path fill="#ffffff" opacity="1.00" d=" M 244.57 92.24 C 286.32 92.48 328.08 92.26 369.83 92.35 C 360.71 123.95 351.76 155.60 342.28 187.09 C 320.65 262.43 298.91 337.74 277.29 413.09 C 297.99 412.73 318.69 413.11 339.39 412.91 C 319.14 463.56 298.74 514.17 278.74 564.92 C 285.46 556.16 291.36 546.79 297.80 537.82 C 341.71 474.57 385.63 411.33 429.54 348.08 C 408.20 348.21 386.86 348.06 365.52 348.16 C 384.26 301.66 402.57 254.99 421.47 208.56 C 441.74 211.00 461.93 216.07 479.98 225.82 C 497.91 235.35 513.55 249.36 524.35 266.61 C 535.28 283.88 541.13 304.01 542.71 324.31 C 544.36 331.27 543.58 338.72 543.13 345.83 C 542.47 347.12 542.43 348.59 542.32 350.01 C 539.08 385.75 524.84 419.97 503.78 448.85 C 482.49 478.28 454.97 502.96 424.24 522.21 C 387.94 544.80 346.73 560.11 304.06 564.31 C 288.13 566.56 271.85 566.36 255.94 564.06 C 233.76 561.50 211.54 554.88 193.25 541.73 C 177.91 530.85 166.05 515.33 159.19 497.85 C 150.25 475.43 148.85 450.69 151.37 426.89 C 153.03 411.02 156.63 395.42 161.18 380.15 C 188.98 284.18 216.66 188.17 244.57 92.24 Z" />
</g>
</svg>
