<svg version="1.2" xmlns="http://www.w3.org/2000/svg" viewBox="0 0 256 256" width="256" height="256">
	<style>
		.s0 { fill: #f4efe7 } 
		.s1 { fill: #ffffff } 
		.s2 { fill: #202020 } 
		.s3 { fill: #ff5a16 } 
	</style>
	<g>
		<path class="s0" d="m128 255.86c-70.78 0-128-57.22-128-128 0-70.79 57.22-128 128-128 70.78 0 128 57.21 128 128 0 70.78-57.22 128-128 128z"/>
		<path class="s1" d="m172.14 69c-11.08-1.11-18.84-1.48-48.75-1.48-19.21 0-35.47 0.19-48.58 1.85-17.36 2.22-32.13 15.51-32.13 40.08 0 24.56 1.29 43.59 11.26 60.39 11.27 19.21 30.11 29.73 54.49 29.73h5.91c29.92 0 46.17-15.88 54.3-28.44q5.26-8.31 7.76-16.62c21.23-1.85 36.93-19.4 36.93-40.82v-2.95c0-23.09-15.14-39.16-41.18-41.75q0 0-0.01 0.01z"/>
		<path class="s2" d="m42.67 109.44c0-24.56 14.78-37.86 32.14-40.07 13.11-1.66 29.37-1.85 48.57-1.85 29.92 0 37.68 0.37 48.76 1.47 26.04 2.59 41.18 18.66 41.18 41.75v2.95c0 21.43-15.7 38.97-36.94 40.82q-2.49 8.31-7.76 16.62c-8.12 12.56-24.38 28.44-54.3 28.44h-5.9c-24.38 0-43.22-10.52-54.49-29.73-9.97-16.81-11.26-35.46-11.26-60.4z"/>
		<path class="s1" d="m56.52 109.63c0 23.82 1.48 39.15 9.24 53.37 8.86 16.44 24.93 22.72 43.21 22.72h5.73c24.01 0 35.64-11.64 42.11-21.79 3.14-5.17 5.91-10.89 7.39-18.1l1.1-4.62h6.65c14.78 0 27.52-12 27.52-27.33v-2.77c0-17.18-10.71-26.23-29.37-28.45-10.52-0.92-16.8-1.29-46.73-1.29-20.13 0-34.53 0.19-45.43 1.85-15.33 2.22-21.42 10.9-21.42 26.41z"/>
		<path class="s2" d="m165.31 122.37c0 2.22 1.66 3.88 4.61 3.88 9.43 0 14.6-5.36 14.6-14.22 0-8.87-5.17-14.41-14.6-14.41-2.95 0-4.61 1.66-4.61 3.88z"/>
		<path class="s3" d="m74.62 121.26c0 10.9 6.1 20.32 13.85 27.71 5.17 4.98 13.3 10.16 18.84 13.48 1.66 0.92 3.33 1.48 5.18 1.48 2.22 0 4.06-0.56 5.54-1.48 5.54-3.32 13.66-8.5 18.65-13.48 7.94-7.39 14.04-16.81 14.04-27.71 0-11.82-8.87-22.35-21.61-22.35-7.57 0-12.74 3.88-16.63 9.23-3.51-5.35-8.86-9.23-16.43-9.23-12.93 0-21.43 10.53-21.43 22.35z"/>
	</g>
</svg>