<?xml version="1.0" encoding="UTF-8" ?>
<!DOCTYPE svg PUBLIC "-//W3C//DTD SVG 1.1//EN" "http://www.w3.org/Graphics/SVG/1.1/DTD/svg11.dtd">
<svg width="800pt" height="800pt" viewBox="0 0 800 800" version="1.1" xmlns="http://www.w3.org/2000/svg">
<g id="#fdfdfdff">
<path fill="#fdfdfd" opacity="1.00" d=" M 396.47 0.00 L 404.51 0.00 C 432.69 0.56 460.91 3.39 488.39 9.78 C 544.97 22.57 598.77 47.77 644.59 83.38 C 708.81 132.71 757.35 202.16 781.53 279.46 C 793.34 316.61 799.33 355.51 800.00 394.47 L 800.00 405.53 C 799.32 449.23 791.67 492.81 777.06 534.01 C 753.49 600.50 711.96 660.51 657.92 705.87 C 605.76 750.04 542.03 780.33 474.88 793.04 C 451.38 797.56 427.45 799.58 403.54 800.00 L 396.47 800.00 C 356.57 799.53 316.71 793.53 278.70 781.28 C 205.80 758.26 139.87 713.70 91.36 654.61 C 66.32 624.43 45.87 590.46 30.79 554.27 C 11.26 507.90 1.09 457.78 0.00 407.52 L 0.00 393.47 C 0.98 337.04 13.72 280.80 37.86 229.76 C 64.69 172.57 105.33 121.90 155.39 83.37 C 196.32 51.61 243.57 28.05 293.52 14.34 C 326.97 4.83 361.74 0.52 396.47 0.00 M 353.93 64.26 C 289.67 72.93 228.18 100.75 179.04 143.04 C 158.46 160.10 140.50 180.18 124.71 201.70 C 104.80 229.27 88.86 259.76 78.06 292.01 C 61.27 341.60 56.30 395.14 63.73 446.97 C 69.37 487.46 82.49 526.94 102.25 562.73 C 116.28 588.65 134.26 612.22 154.04 633.97 C 195.88 677.99 249.63 710.66 308.18 726.92 C 380.16 747.29 458.90 742.65 527.97 713.91 C 563.50 699.35 596.42 678.55 625.05 652.98 C 630.67 649.84 635.06 645.08 639.58 640.57 C 675.35 605.08 702.99 561.46 719.93 514.00 C 732.35 479.40 738.85 442.75 739.62 406.02 C 740.12 383.87 737.77 361.78 734.48 339.90 C 733.60 340.15 732.77 340.53 732.01 341.01 C 708.42 358.41 685.00 376.05 661.35 393.38 C 661.71 415.30 659.71 437.28 654.68 458.64 C 645.11 500.58 624.59 539.88 596.10 572.07 C 591.84 576.82 587.71 581.80 582.46 585.51 C 576.37 591.43 570.21 597.29 563.63 602.67 C 516.46 642.15 454.41 663.15 392.99 660.97 C 367.83 660.48 342.71 656.24 318.83 648.23 C 281.05 636.07 246.47 614.58 218.10 586.90 C 212.14 580.18 205.53 574.07 199.88 567.08 C 162.41 523.32 140.42 466.56 138.85 408.96 C 138.29 399.94 139.29 390.93 139.28 381.92 C 141.91 342.58 154.05 304.00 173.89 269.96 C 186.32 248.84 201.45 229.13 219.62 212.61 C 268.83 164.37 338.04 137.15 406.96 139.59 C 411.63 139.97 416.32 139.31 420.98 139.88 C 464.96 143.72 508.04 158.60 544.65 183.35 C 545.87 184.20 547.33 185.11 548.56 183.69 C 569.99 167.82 591.47 152.02 612.78 135.98 C 554.53 88.61 480.08 61.48 404.98 60.57 C 387.94 61.22 370.83 61.69 353.93 64.26 M 401.17 389.17 C 399.76 390.83 397.95 389.24 396.57 388.44 C 354.50 361.95 312.34 335.59 270.24 309.15 C 270.42 341.63 270.23 374.11 270.49 406.59 C 279.96 413.17 290.04 418.92 299.71 425.23 C 332.96 446.05 366.12 467.00 399.38 487.80 C 400.58 488.90 401.83 487.39 402.85 486.82 C 504.98 411.46 607.08 336.05 709.27 260.75 C 707.56 256.02 705.07 251.63 702.84 247.14 C 693.14 228.09 681.76 209.89 668.84 192.86 C 579.54 258.19 490.40 323.74 401.17 389.17 Z" />
</g>
<g id="#00a221ff">
<path fill="#00a221" opacity="1.00" d=" M 353.93 64.26 C 370.83 61.69 387.94 61.22 404.98 60.57 C 480.08 61.48 554.53 88.61 612.78 135.98 C 591.47 152.02 569.99 167.82 548.56 183.69 C 547.33 185.11 545.87 184.20 544.65 183.35 C 508.04 158.60 464.96 143.72 420.98 139.88 C 416.32 139.31 411.63 139.97 406.96 139.59 C 338.04 137.15 268.83 164.37 219.62 212.61 C 201.45 229.13 186.32 248.84 173.89 269.96 C 154.05 304.00 141.91 342.58 139.28 381.92 C 139.29 390.93 138.29 399.94 138.85 408.96 C 140.42 466.56 162.41 523.32 199.88 567.08 C 205.53 574.07 212.14 580.18 218.10 586.90 C 246.47 614.58 281.05 636.07 318.83 648.23 C 342.71 656.24 367.83 660.48 392.99 660.97 C 454.41 663.15 516.46 642.15 563.63 602.67 C 570.21 597.29 576.37 591.43 582.46 585.51 C 587.71 581.80 591.84 576.82 596.10 572.07 C 624.59 539.88 645.11 500.58 654.68 458.64 C 659.71 437.28 661.71 415.30 661.35 393.38 C 685.00 376.05 708.42 358.41 732.01 341.01 C 732.77 340.53 733.60 340.15 734.48 339.90 C 737.77 361.78 740.12 383.87 739.62 406.02 C 738.85 442.75 732.35 479.40 719.93 514.00 C 702.99 561.46 675.35 605.08 639.58 640.57 C 635.06 645.08 630.67 649.84 625.05 652.98 C 596.42 678.55 563.50 699.35 527.97 713.91 C 458.90 742.65 380.16 747.29 308.18 726.92 C 249.63 710.66 195.88 677.99 154.04 633.97 C 134.26 612.22 116.28 588.65 102.25 562.73 C 82.49 526.94 69.37 487.46 63.73 446.97 C 56.30 395.14 61.27 341.60 78.06 292.01 C 88.86 259.76 104.80 229.27 124.71 201.70 C 140.50 180.18 158.46 160.10 179.04 143.04 C 228.18 100.75 289.67 72.93 353.93 64.26 Z" />
<path fill="#00a221" opacity="1.00" d=" M 401.17 389.17 C 490.40 323.74 579.54 258.19 668.84 192.86 C 681.76 209.89 693.14 228.09 702.84 247.14 C 705.07 251.63 707.56 256.02 709.27 260.75 C 607.08 336.05 504.98 411.46 402.85 486.82 C 401.83 487.39 400.58 488.90 399.38 487.80 C 366.12 467.00 332.96 446.05 299.71 425.23 C 290.04 418.92 279.96 413.17 270.49 406.59 C 270.23 374.11 270.42 341.63 270.24 309.15 C 312.34 335.59 354.50 361.95 396.57 388.44 C 397.95 389.24 399.76 390.83 401.17 389.17 Z" />
</g>
</svg>
